<svg width="22" height="26" viewBox="0 0 22 26" fill="none" xmlns="http://www.w3.org/2000/svg">
<path d="M16.5 15.1667C16.5 15.454 16.3841 15.7295 16.1778 15.9327C15.9715 16.1359 15.6917 16.25 15.4 16.25H6.59999C6.30825 16.25 6.02847 16.1359 5.82218 15.9327C5.61589 15.7295 5.49999 15.454 5.49999 15.1667C5.49999 14.8794 5.61589 14.6038 5.82218 14.4006C6.02847 14.1975 6.30825 14.0833 6.59999 14.0833H15.4C15.6917 14.0833 15.9715 14.1975 16.1778 14.4006C16.3841 14.6038 16.5 14.8794 16.5 15.1667ZM12.1 18.4167H6.59999C6.30825 18.4167 6.02847 18.5308 5.82218 18.734C5.61589 18.9371 5.49999 19.2127 5.49999 19.5C5.49999 19.7873 5.61589 20.0629 5.82218 20.266C6.02847 20.4692 6.30825 20.5833 6.59999 20.5833H12.1C12.3917 20.5833 12.6715 20.4692 12.8778 20.266C13.0841 20.0629 13.2 19.7873 13.2 19.5C13.2 19.2127 13.0841 18.9371 12.8778 18.734C12.6715 18.5308 12.3917 18.4167 12.1 18.4167ZM22 11.3588V20.5833C21.9982 22.0194 21.4182 23.3962 20.3871 24.4116C19.3561 25.427 17.9581 25.9983 16.5 26H5.49999C4.04184 25.9983 2.64391 25.427 1.61284 24.4116C0.581769 23.3962 0.00174664 22.0194 0 20.5833V5.41669C0.00174664 3.98063 0.581769 2.60388 1.61284 1.58843C2.64391 0.57298 4.04184 0.00174515 5.49999 2.49694e-05H10.4665C11.4781 -0.0025392 12.4801 0.192412 13.4147 0.573605C14.3493 0.954799 15.1979 1.51467 15.9115 2.22086L19.7439 5.99735C20.4613 6.69961 21.0302 7.5351 21.4174 8.45541C21.8047 9.37572 22.0027 10.3626 22 11.3588ZM14.3561 3.75269C14.0099 3.42245 13.6212 3.13836 13.2 2.90769V7.58335C13.2 7.87067 13.3159 8.14622 13.5222 8.34938C13.7285 8.55255 14.0082 8.66668 14.3 8.66668H19.0476C18.8132 8.25197 18.5244 7.86951 18.1885 7.52918L14.3561 3.75269ZM19.8 11.3588C19.8 11.18 19.7648 11.0088 19.7483 10.8333H14.3C13.4248 10.8333 12.5854 10.4909 11.9665 9.88145C11.3477 9.27195 11 8.4453 11 7.58335V2.21761C10.8218 2.20136 10.6469 2.16669 10.4665 2.16669H5.49999C4.62478 2.16669 3.78541 2.5091 3.16654 3.11859C2.54767 3.72808 2.2 4.55473 2.2 5.41669V20.5833C2.2 21.4453 2.54767 22.2719 3.16654 22.8814C3.78541 23.4909 4.62478 23.8333 5.49999 23.8333H16.5C17.3752 23.8333 18.2146 23.4909 18.8334 22.8814C19.4523 22.2719 19.8 21.4453 19.8 20.5833V11.3588Z" fill="white"/>
</svg>
