<svg width="60" height="60" viewBox="0 0 60 60" fill="none" xmlns="http://www.w3.org/2000/svg">
<path d="M43.125 0C37.71 0 33.045 4.0875 30 10.71C26.955 4.0875 22.29 0 16.875 0C7.255 0 0 12.8975 0 30C0 47.1025 7.255 60 16.875 60C22.29 60 26.955 55.9125 30 49.29C33.045 55.9125 37.71 60 43.125 60C52.745 60 60 47.1025 60 30C60 12.8975 52.745 0 43.125 0ZM16.875 52.5C14.2775 52.5 10.9975 48.7275 9.085 42.115C9.76 42.365 10.4875 42.5 11.25 42.5C14.7025 42.5 17.5 39.7025 17.5 36.25C17.5 32.7975 14.7025 30 11.25 30C9.85 30 8.5575 30.46 7.515 31.2375C7.505 30.83 7.5 30.4175 7.5 30C7.5 16.06 12.96 7.5 16.875 7.5C20.79 7.5 26.25 16.06 26.25 30C26.25 43.94 20.79 52.5 16.875 52.5ZM43.125 52.5C40.425 52.5 36.9925 48.4325 35.12 41.3375C36.1425 42.07 37.395 42.5 38.75 42.5C42.2025 42.5 45 39.7025 45 36.25C45 32.7975 42.2025 30 38.75 30C36.7375 30 34.95 30.95 33.8075 32.4275C33.77 31.6375 33.75 30.8275 33.75 30C33.75 16.06 39.21 7.5 43.125 7.5C47.04 7.5 52.5 16.06 52.5 30C52.5 43.94 47.04 52.5 43.125 52.5Z" fill="#313131"/>
</svg>
