<svg width="8" height="18" viewBox="0 0 8 18" fill="none" xmlns="http://www.w3.org/2000/svg">
<path d="M4 3.27258C5.07614 3.27258 5.59902 2.73751 5.59902 1.63629C5.59902 0.535067 5.07614 0 4 0C2.92386 0 2.40098 0.535067 2.40098 1.63629C2.40098 2.73751 2.92386 3.27258 4 3.27258ZM4 0.818145C4.63481 0.818145 4.79951 0.986682 4.79951 1.63629C4.79951 2.2859 4.63481 2.45443 4 2.45443C3.36519 2.45443 3.20049 2.2859 3.20049 1.63629C3.20049 0.986682 3.36519 0.818145 4 0.818145ZM7.99756 13.8487C8.05113 11.247 7.21564 7.04341 6.28021 5.20095C5.78771 4.20526 4.74355 4.09072 4 4.09072C3.25645 4.09072 2.21229 4.20608 1.72219 5.19767C0.784365 7.04341 -0.0511247 11.2479 0.0024426 13.8496C0.0152348 14.509 0.0136358 14.5262 0.0024426 14.7471C0.0112372 14.927 0.133562 15.0809 0.304658 15.1242C0.352628 15.1365 1.19132 15.3443 2.40018 15.4638V17.5909C2.40018 17.8167 2.57927 18 2.79993 18C3.0206 18 3.19969 17.8167 3.19969 17.5909V15.5243C3.45713 15.5374 3.72337 15.5456 3.9992 15.5456C4.27503 15.5456 4.54127 15.5374 4.79871 15.5243V17.5909C4.79871 17.8167 4.9778 18 5.19847 18C5.41913 18 5.59822 17.8167 5.59822 17.5909V15.4638C6.80708 15.3451 7.64577 15.1365 7.69374 15.1242C7.86484 15.0809 7.98796 14.927 7.99596 14.7471C7.98477 14.527 7.98397 14.509 7.99596 13.8496L7.99756 13.8487ZM7.18845 14.3993C6.63759 14.5131 5.41594 14.7266 4 14.7266C2.58407 14.7266 1.36241 14.5131 0.811548 14.3993C0.811548 14.2496 0.806751 14.0639 0.801954 13.8316C0.751585 11.3837 1.55829 7.29376 2.43376 5.57075C2.58566 5.26312 2.90147 4.90887 4 4.90887C5.09853 4.90887 5.41434 5.26231 5.56784 5.57402C6.44091 7.29294 7.24842 11.3828 7.19805 13.8307C7.19325 14.0631 7.18925 14.2496 7.18845 14.3993Z" fill="#A4A4A4"/>
</svg>
