<svg width="8" height="21" viewBox="0 0 8 21" fill="none" xmlns="http://www.w3.org/2000/svg">
<path d="M4 4.375C5.22578 4.375 6.22222 3.39325 6.22222 2.1875C6.22222 0.98175 5.22578 0 4 0C2.77422 0 1.77778 0.98175 1.77778 2.1875C1.77778 3.39325 2.77422 4.375 4 4.375ZM4 0.875C4.73511 0.875 5.33333 1.46387 5.33333 2.1875C5.33333 2.91112 4.73511 3.5 4 3.5C3.26489 3.5 2.66667 2.91112 2.66667 2.1875C2.66667 1.46387 3.26489 0.875 4 0.875ZM8 7.4375C8 6.23175 7.00356 5.25 5.77778 5.25H2.22222C0.996445 5.25 0 6.23175 0 7.4375V14.875H1.77778V21H2.66667V14.875H5.33333V21H6.22222V14.875H8V7.4375ZM7.11111 14H0.888889V7.4375C0.888889 6.71387 1.48711 6.125 2.22222 6.125H5.77778C6.51289 6.125 7.11111 6.71387 7.11111 7.4375V14Z" fill="#A4A4A4"/>
</svg>
