<svg width="30" height="25" viewBox="0 0 30 25" fill="none" xmlns="http://www.w3.org/2000/svg">
<path d="M29.375 7.47625H30V3.125C30 1.40125 28.5975 0 26.875 0H6.875C5.1525 0 3.75 1.40125 3.75 3.125V18.125C3.75 19.8487 5.1525 21.25 6.875 21.25H26.875C28.5975 21.25 30 19.8487 30 18.125V13.7262H29.375C27.6525 13.7262 26.25 12.325 26.25 10.6012C26.25 8.8775 27.6525 7.47625 29.375 7.47625ZM25 10.6012C25 12.8012 26.6325 14.6275 28.75 14.9325V18.125C28.75 19.1588 27.9088 20 26.875 20H6.875C5.84125 20 5 19.1588 5 18.125V3.125C5 2.09125 5.84125 1.25 6.875 1.25H26.875C27.9088 1.25 28.75 2.09125 28.75 3.125V6.27125C26.6325 6.57625 25 8.4025 25 10.6025V10.6012ZM19.0625 8.75H17.8L15.6388 6.05C15.2862 5.4025 14.6087 5 13.87 5H11.5262L13.2463 8.75H12.4213L11.4825 7.96875C10.7725 7.2575 9.4725 7.42625 8.9675 8.2975C8.67875 8.795 8.67625 9.3925 9.0275 9.9875L11.1462 12.5013H13.23L11.5312 16.2513H13.8925C14.6313 16.2513 15.3075 15.8488 15.6025 15.2887L17.8037 12.5013H21.2512V10.6263C21.2512 9.5225 20.3512 8.75125 19.0638 8.75125L19.0625 8.75ZM20 11.25H17.1975L14.5613 14.6025C14.4288 14.8475 14.1713 15 13.8912 15H13.4688L15.1675 11.25H11.7262L10.0475 9.27375C9.9575 9.115 10.0188 8.97625 10.0475 8.925C10.0925 8.84625 10.3212 8.58375 10.6388 8.89125L11.9675 10.0013H15.1925L13.4725 6.25125H13.8688C14.1488 6.25125 14.405 6.40375 14.5988 6.74L17.1975 10.0013H19.0612C19.515 10.0013 19.9987 10.1663 19.9987 10.6263V11.2513L20 11.25ZM6.875 23.75H23.75V25H6.875C3.08375 25 0 21.915 0 18.125V5H1.25V18.125C1.25 21.2262 3.77375 23.75 6.875 23.75Z" fill="white"/>
</svg>
